<mxfile host="app.diagrams.net" modified="2021-11-17T22:56:30.573Z" agent="5.0 (Windows NT 10.0; Win64; x64) AppleWebKit/537.36 (KHTML, like Gecko) Chrome/95.0.4638.69 Safari/537.36" etag="DfQPWOMVo4YpWh3sW70b" version="15.8.2" type="github">
  <diagram id="BCVr3omHkicOpqJ9TAwK" name="Page-1">
    <mxGraphModel dx="2502" dy="1390" grid="1" gridSize="10" guides="1" tooltips="1" connect="1" arrows="1" fold="1" page="1" pageScale="1" pageWidth="850" pageHeight="1100" math="0" shadow="0">
      <root>
        <mxCell id="0" />
        <mxCell id="1" parent="0" />
        <mxCell id="76EtGpGsDEVgRCwFcyli-1" value="" style="shape=cloud;whiteSpace=wrap;html=1;" vertex="1" parent="1">
          <mxGeometry x="32" y="60" width="240" height="150" as="geometry" />
        </mxCell>
        <mxCell id="76EtGpGsDEVgRCwFcyli-8" value="" style="html=1;verticalLabelPosition=bottom;labelBackgroundColor=#ffffff;verticalAlign=top;shadow=0;dashed=0;strokeWidth=1;shape=mxgraph.ios7.misc.ipad13inch;strokeColor=#c0c0c0;" vertex="1" parent="1">
          <mxGeometry x="127" y="100" width="30" height="50" as="geometry" />
        </mxCell>
        <mxCell id="76EtGpGsDEVgRCwFcyli-12" value="" style="html=1;verticalLabelPosition=bottom;labelBackgroundColor=#ffffff;verticalAlign=top;shadow=0;dashed=0;strokeWidth=1;shape=mxgraph.ios7.misc.ipad13inch;strokeColor=#c0c0c0;" vertex="1" parent="1">
          <mxGeometry x="137" y="110" width="30" height="50" as="geometry" />
        </mxCell>
        <mxCell id="76EtGpGsDEVgRCwFcyli-13" value="" style="html=1;verticalLabelPosition=bottom;labelBackgroundColor=#ffffff;verticalAlign=top;shadow=0;dashed=0;strokeWidth=1;shape=mxgraph.ios7.misc.ipad13inch;strokeColor=#c0c0c0;" vertex="1" parent="1">
          <mxGeometry x="147" y="120" width="30" height="50" as="geometry" />
        </mxCell>
        <mxCell id="76EtGpGsDEVgRCwFcyli-16" value="" style="rounded=1;whiteSpace=wrap;html=1;fixDash=0;dashed=1;" vertex="1" parent="1">
          <mxGeometry x="417" y="70" width="360" height="200" as="geometry" />
        </mxCell>
        <mxCell id="76EtGpGsDEVgRCwFcyli-17" value="" style="aspect=fixed;perimeter=ellipsePerimeter;html=1;align=center;shadow=0;dashed=0;spacingTop=3;image;image=img/lib/active_directory/generic_server.svg;rounded=1;" vertex="1" parent="1">
          <mxGeometry x="527" y="100" width="28.000000000000004" height="50" as="geometry" />
        </mxCell>
        <mxCell id="76EtGpGsDEVgRCwFcyli-18" value="" style="aspect=fixed;perimeter=ellipsePerimeter;html=1;align=center;shadow=0;dashed=0;spacingTop=3;image;image=img/lib/active_directory/generic_server.svg;rounded=1;" vertex="1" parent="1">
          <mxGeometry x="537" y="110" width="28.000000000000004" height="50" as="geometry" />
        </mxCell>
        <mxCell id="76EtGpGsDEVgRCwFcyli-19" value="" style="aspect=fixed;perimeter=ellipsePerimeter;html=1;align=center;shadow=0;dashed=0;spacingTop=3;image;image=img/lib/active_directory/generic_server.svg;rounded=1;" vertex="1" parent="1">
          <mxGeometry x="547" y="120" width="28.000000000000004" height="50" as="geometry" />
        </mxCell>
        <mxCell id="76EtGpGsDEVgRCwFcyli-21" value="mPos" style="text;html=1;resizable=0;autosize=1;align=center;verticalAlign=middle;points=[];fillColor=none;strokeColor=none;rounded=0;" vertex="1" parent="1">
          <mxGeometry x="507" y="80" width="50" height="20" as="geometry" />
        </mxCell>
        <mxCell id="76EtGpGsDEVgRCwFcyli-22" value="" style="rounded=1;whiteSpace=wrap;html=1;fixDash=0;dashed=1;" vertex="1" parent="1">
          <mxGeometry x="457" y="340" width="240" height="100" as="geometry" />
        </mxCell>
        <mxCell id="76EtGpGsDEVgRCwFcyli-25" value="" style="rounded=1;whiteSpace=wrap;html=1;strokeWidth=2;fillWeight=4;hachureGap=8;hachureAngle=45;fillColor=#66FF66;sketch=1;dashed=1;" vertex="1" parent="1">
          <mxGeometry x="542" y="375" width="70" height="30" as="geometry" />
        </mxCell>
        <mxCell id="76EtGpGsDEVgRCwFcyli-26" value="API Endpoint" style="text;html=1;resizable=0;autosize=1;align=center;verticalAlign=middle;points=[];fillColor=none;strokeColor=none;rounded=0;dashed=1;" vertex="1" parent="1">
          <mxGeometry x="522" y="350" width="90" height="20" as="geometry" />
        </mxCell>
        <mxCell id="76EtGpGsDEVgRCwFcyli-27" value="&lt;font style=&quot;font-size: 18px&quot;&gt;&lt;font style=&quot;font-size: 18px&quot;&gt;Heap&lt;/font&gt;.io&lt;/font&gt;" style="text;html=1;resizable=0;autosize=1;align=center;verticalAlign=middle;points=[];fillColor=none;strokeColor=none;rounded=0;dashed=1;" vertex="1" parent="1">
          <mxGeometry x="522" y="300" width="80" height="20" as="geometry" />
        </mxCell>
        <mxCell id="76EtGpGsDEVgRCwFcyli-28" value="&lt;span style=&quot;font-size: 18px&quot;&gt;KWI&lt;/span&gt;" style="text;html=1;resizable=0;autosize=1;align=center;verticalAlign=middle;points=[];fillColor=none;strokeColor=none;rounded=0;dashed=1;" vertex="1" parent="1">
          <mxGeometry x="536" y="50" width="50" height="20" as="geometry" />
        </mxCell>
        <mxCell id="76EtGpGsDEVgRCwFcyli-30" value="" style="endArrow=classic;startArrow=none;html=1;rounded=0;fontSize=18;exitX=1.071;exitY=0.289;exitDx=0;exitDy=0;exitPerimeter=0;entryX=0.278;entryY=0.3;entryDx=0;entryDy=0;entryPerimeter=0;" edge="1" parent="1" source="76EtGpGsDEVgRCwFcyli-70" target="76EtGpGsDEVgRCwFcyli-16">
          <mxGeometry width="50" height="50" relative="1" as="geometry">
            <mxPoint x="357" y="280" as="sourcePoint" />
            <mxPoint x="407" y="230" as="targetPoint" />
          </mxGeometry>
        </mxCell>
        <mxCell id="76EtGpGsDEVgRCwFcyli-31" value="&lt;font style=&quot;font-size: 6px&quot;&gt;Standard Device Traffic&lt;/font&gt;" style="edgeLabel;html=1;align=center;verticalAlign=middle;resizable=0;points=[];fontSize=18;" vertex="1" connectable="0" parent="76EtGpGsDEVgRCwFcyli-30">
          <mxGeometry x="0.0898" relative="1" as="geometry">
            <mxPoint x="-119" y="-6" as="offset" />
          </mxGeometry>
        </mxCell>
        <mxCell id="76EtGpGsDEVgRCwFcyli-32" value="" style="endArrow=classic;startArrow=none;html=1;rounded=0;fontSize=18;exitX=1.071;exitY=0.289;exitDx=0;exitDy=0;exitPerimeter=0;entryX=0;entryY=0.5;entryDx=0;entryDy=0;startFill=0;" edge="1" parent="1" target="76EtGpGsDEVgRCwFcyli-22">
          <mxGeometry width="50" height="50" relative="1" as="geometry">
            <mxPoint x="189.13" y="144.45" as="sourcePoint" />
            <mxPoint x="447.08000000000015" y="130" as="targetPoint" />
          </mxGeometry>
        </mxCell>
        <mxCell id="76EtGpGsDEVgRCwFcyli-33" value="&lt;span style=&quot;font-size: 6px&quot;&gt;Device Analytics Traffic&lt;br&gt;&lt;/span&gt;" style="edgeLabel;html=1;align=center;verticalAlign=middle;resizable=0;points=[];fontSize=18;" vertex="1" connectable="0" parent="76EtGpGsDEVgRCwFcyli-32">
          <mxGeometry x="0.0898" relative="1" as="geometry">
            <mxPoint x="12" as="offset" />
          </mxGeometry>
        </mxCell>
        <mxCell id="76EtGpGsDEVgRCwFcyli-34" value="" style="endArrow=classic;startArrow=none;html=1;rounded=0;fontSize=18;entryX=0;entryY=0.5;entryDx=0;entryDy=0;startFill=0;exitX=0;exitY=0.5;exitDx=0;exitDy=0;" edge="1" parent="1" source="76EtGpGsDEVgRCwFcyli-22" target="76EtGpGsDEVgRCwFcyli-25">
          <mxGeometry width="50" height="50" relative="1" as="geometry">
            <mxPoint x="147" y="340" as="sourcePoint" />
            <mxPoint x="467" y="400" as="targetPoint" />
          </mxGeometry>
        </mxCell>
        <mxCell id="76EtGpGsDEVgRCwFcyli-36" value="&lt;font style=&quot;font-size: 15px&quot;&gt;Internet&lt;/font&gt;" style="text;html=1;resizable=0;autosize=1;align=center;verticalAlign=middle;points=[];fillColor=none;strokeColor=none;rounded=0;dashed=1;fontSize=6;" vertex="1" parent="1">
          <mxGeometry x="112" y="50" width="70" height="20" as="geometry" />
        </mxCell>
        <mxCell id="76EtGpGsDEVgRCwFcyli-37" value="" style="shape=link;html=1;rounded=0;fontSize=15;startArrow=none;startFill=0;" edge="1" parent="1">
          <mxGeometry width="100" relative="1" as="geometry">
            <mxPoint x="57" y="500" as="sourcePoint" />
            <mxPoint x="817" y="500" as="targetPoint" />
          </mxGeometry>
        </mxCell>
        <mxCell id="76EtGpGsDEVgRCwFcyli-38" value="" style="shape=cloud;whiteSpace=wrap;html=1;" vertex="1" parent="1">
          <mxGeometry x="57" y="540" width="240" height="150" as="geometry" />
        </mxCell>
        <mxCell id="76EtGpGsDEVgRCwFcyli-39" value="" style="html=1;verticalLabelPosition=bottom;labelBackgroundColor=#ffffff;verticalAlign=top;shadow=0;dashed=0;strokeWidth=1;shape=mxgraph.ios7.misc.ipad13inch;strokeColor=#c0c0c0;" vertex="1" parent="1">
          <mxGeometry x="152" y="580" width="30" height="50" as="geometry" />
        </mxCell>
        <mxCell id="76EtGpGsDEVgRCwFcyli-40" value="" style="html=1;verticalLabelPosition=bottom;labelBackgroundColor=#ffffff;verticalAlign=top;shadow=0;dashed=0;strokeWidth=1;shape=mxgraph.ios7.misc.ipad13inch;strokeColor=#c0c0c0;" vertex="1" parent="1">
          <mxGeometry x="162" y="590" width="30" height="50" as="geometry" />
        </mxCell>
        <mxCell id="76EtGpGsDEVgRCwFcyli-41" value="" style="html=1;verticalLabelPosition=bottom;labelBackgroundColor=#ffffff;verticalAlign=top;shadow=0;dashed=0;strokeWidth=1;shape=mxgraph.ios7.misc.ipad13inch;strokeColor=#c0c0c0;" vertex="1" parent="1">
          <mxGeometry x="172" y="600" width="30" height="50" as="geometry" />
        </mxCell>
        <mxCell id="76EtGpGsDEVgRCwFcyli-42" value="" style="rounded=1;whiteSpace=wrap;html=1;fixDash=0;dashed=1;" vertex="1" parent="1">
          <mxGeometry x="442" y="550" width="360" height="200" as="geometry" />
        </mxCell>
        <mxCell id="76EtGpGsDEVgRCwFcyli-43" value="" style="aspect=fixed;perimeter=ellipsePerimeter;html=1;align=center;shadow=0;dashed=0;spacingTop=3;image;image=img/lib/active_directory/generic_server.svg;rounded=1;" vertex="1" parent="1">
          <mxGeometry x="552" y="580" width="28.000000000000004" height="50" as="geometry" />
        </mxCell>
        <mxCell id="76EtGpGsDEVgRCwFcyli-44" value="" style="aspect=fixed;perimeter=ellipsePerimeter;html=1;align=center;shadow=0;dashed=0;spacingTop=3;image;image=img/lib/active_directory/generic_server.svg;rounded=1;" vertex="1" parent="1">
          <mxGeometry x="562" y="590" width="28.000000000000004" height="50" as="geometry" />
        </mxCell>
        <mxCell id="76EtGpGsDEVgRCwFcyli-45" value="" style="aspect=fixed;perimeter=ellipsePerimeter;html=1;align=center;shadow=0;dashed=0;spacingTop=3;image;image=img/lib/active_directory/generic_server.svg;rounded=1;" vertex="1" parent="1">
          <mxGeometry x="572" y="600" width="28.000000000000004" height="50" as="geometry" />
        </mxCell>
        <mxCell id="76EtGpGsDEVgRCwFcyli-46" value="mPos" style="text;html=1;resizable=0;autosize=1;align=center;verticalAlign=middle;points=[];fillColor=none;strokeColor=none;rounded=0;" vertex="1" parent="1">
          <mxGeometry x="532" y="560" width="50" height="20" as="geometry" />
        </mxCell>
        <mxCell id="76EtGpGsDEVgRCwFcyli-47" value="" style="rounded=1;whiteSpace=wrap;html=1;fixDash=0;dashed=1;" vertex="1" parent="1">
          <mxGeometry x="477" y="820" width="240" height="100" as="geometry" />
        </mxCell>
        <mxCell id="76EtGpGsDEVgRCwFcyli-48" value="" style="rounded=1;whiteSpace=wrap;html=1;strokeWidth=2;fillWeight=4;hachureGap=8;hachureAngle=45;fillColor=#66FF66;sketch=1;dashed=1;" vertex="1" parent="1">
          <mxGeometry x="562" y="855" width="70" height="30" as="geometry" />
        </mxCell>
        <mxCell id="76EtGpGsDEVgRCwFcyli-49" value="API Endpoint" style="text;html=1;resizable=0;autosize=1;align=center;verticalAlign=middle;points=[];fillColor=none;strokeColor=none;rounded=0;dashed=1;" vertex="1" parent="1">
          <mxGeometry x="542" y="830" width="90" height="20" as="geometry" />
        </mxCell>
        <mxCell id="76EtGpGsDEVgRCwFcyli-50" value="&lt;font style=&quot;font-size: 18px&quot;&gt;&lt;font style=&quot;font-size: 18px&quot;&gt;Heap&lt;/font&gt;.io&lt;/font&gt;" style="text;html=1;resizable=0;autosize=1;align=center;verticalAlign=middle;points=[];fillColor=none;strokeColor=none;rounded=0;dashed=1;" vertex="1" parent="1">
          <mxGeometry x="547" y="790" width="80" height="20" as="geometry" />
        </mxCell>
        <mxCell id="76EtGpGsDEVgRCwFcyli-51" value="&lt;span style=&quot;font-size: 18px&quot;&gt;KWI&lt;/span&gt;" style="text;html=1;resizable=0;autosize=1;align=center;verticalAlign=middle;points=[];fillColor=none;strokeColor=none;rounded=0;dashed=1;" vertex="1" parent="1">
          <mxGeometry x="561" y="530" width="50" height="20" as="geometry" />
        </mxCell>
        <mxCell id="76EtGpGsDEVgRCwFcyli-52" value="" style="endArrow=classic;startArrow=classic;html=1;rounded=0;fontSize=18;exitX=1.071;exitY=0.289;exitDx=0;exitDy=0;exitPerimeter=0;entryX=0.278;entryY=0.3;entryDx=0;entryDy=0;entryPerimeter=0;" edge="1" parent="1" source="76EtGpGsDEVgRCwFcyli-41" target="76EtGpGsDEVgRCwFcyli-42">
          <mxGeometry width="50" height="50" relative="1" as="geometry">
            <mxPoint x="382" y="760" as="sourcePoint" />
            <mxPoint x="432" y="710" as="targetPoint" />
          </mxGeometry>
        </mxCell>
        <mxCell id="76EtGpGsDEVgRCwFcyli-53" value="&lt;font style=&quot;font-size: 6px&quot;&gt;Standard Device Traffic&lt;/font&gt;" style="edgeLabel;html=1;align=center;verticalAlign=middle;resizable=0;points=[];fontSize=18;" vertex="1" connectable="0" parent="76EtGpGsDEVgRCwFcyli-52">
          <mxGeometry x="0.0898" relative="1" as="geometry">
            <mxPoint as="offset" />
          </mxGeometry>
        </mxCell>
        <mxCell id="76EtGpGsDEVgRCwFcyli-54" value="" style="endArrow=classic;startArrow=none;html=1;rounded=0;fontSize=18;exitX=1.071;exitY=0.289;exitDx=0;exitDy=0;exitPerimeter=0;startFill=0;entryX=-0.161;entryY=0.572;entryDx=0;entryDy=0;entryPerimeter=0;" edge="1" parent="1" target="76EtGpGsDEVgRCwFcyli-62">
          <mxGeometry width="50" height="50" relative="1" as="geometry">
            <mxPoint x="214.13000000000034" y="624.45" as="sourcePoint" />
            <mxPoint x="397" y="860" as="targetPoint" />
          </mxGeometry>
        </mxCell>
        <mxCell id="76EtGpGsDEVgRCwFcyli-55" value="&lt;span style=&quot;font-size: 6px&quot;&gt;Device Analytics Traffic&lt;br&gt;&lt;/span&gt;" style="edgeLabel;html=1;align=center;verticalAlign=middle;resizable=0;points=[];fontSize=18;" vertex="1" connectable="0" parent="76EtGpGsDEVgRCwFcyli-54">
          <mxGeometry x="0.0898" relative="1" as="geometry">
            <mxPoint x="12" as="offset" />
          </mxGeometry>
        </mxCell>
        <mxCell id="76EtGpGsDEVgRCwFcyli-56" value="" style="endArrow=classic;startArrow=none;html=1;rounded=0;fontSize=18;entryX=0;entryY=0.5;entryDx=0;entryDy=0;startFill=0;exitX=0;exitY=0.5;exitDx=0;exitDy=0;" edge="1" parent="1" source="76EtGpGsDEVgRCwFcyli-47" target="76EtGpGsDEVgRCwFcyli-48">
          <mxGeometry width="50" height="50" relative="1" as="geometry">
            <mxPoint x="167" y="820" as="sourcePoint" />
            <mxPoint x="487" y="880" as="targetPoint" />
          </mxGeometry>
        </mxCell>
        <mxCell id="76EtGpGsDEVgRCwFcyli-57" value="&lt;font style=&quot;font-size: 15px&quot;&gt;Internet&lt;/font&gt;" style="text;html=1;resizable=0;autosize=1;align=center;verticalAlign=middle;points=[];fillColor=none;strokeColor=none;rounded=0;dashed=1;fontSize=6;" vertex="1" parent="1">
          <mxGeometry x="137" y="530" width="70" height="20" as="geometry" />
        </mxCell>
        <mxCell id="76EtGpGsDEVgRCwFcyli-62" value="" style="aspect=fixed;perimeter=ellipsePerimeter;html=1;align=center;shadow=0;dashed=0;spacingTop=3;image;image=img/lib/active_directory/generic_server.svg;rounded=1;fontSize=15;fillColor=#66FF66;" vertex="1" parent="1">
          <mxGeometry x="533" y="660" width="28.000000000000004" height="50" as="geometry" />
        </mxCell>
        <mxCell id="76EtGpGsDEVgRCwFcyli-63" value="" style="aspect=fixed;perimeter=ellipsePerimeter;html=1;align=center;shadow=0;dashed=0;spacingTop=3;image;image=img/lib/active_directory/generic_server.svg;rounded=1;fontSize=15;fillColor=#66FF66;" vertex="1" parent="1">
          <mxGeometry x="543" y="670" width="28.000000000000004" height="50" as="geometry" />
        </mxCell>
        <mxCell id="76EtGpGsDEVgRCwFcyli-65" value="" style="endArrow=classic;startArrow=none;html=1;rounded=0;fontSize=15;exitX=0;exitY=1;exitDx=0;exitDy=0;startFill=0;" edge="1" parent="1" source="76EtGpGsDEVgRCwFcyli-63">
          <mxGeometry width="50" height="50" relative="1" as="geometry">
            <mxPoint x="377" y="860" as="sourcePoint" />
            <mxPoint x="477" y="870" as="targetPoint" />
            <Array as="points">
              <mxPoint x="550" y="770" />
              <mxPoint x="387" y="770" />
              <mxPoint x="387" y="870" />
            </Array>
          </mxGeometry>
        </mxCell>
        <mxCell id="76EtGpGsDEVgRCwFcyli-70" value="" style="rounded=0;whiteSpace=wrap;html=1;dashed=1;fontSize=15;fillColor=#FF3333;" vertex="1" parent="1">
          <mxGeometry x="437" y="90" width="10" height="130" as="geometry" />
        </mxCell>
        <mxCell id="76EtGpGsDEVgRCwFcyli-71" value="" style="endArrow=none;startArrow=classic;html=1;rounded=0;fontSize=18;exitX=1.071;exitY=0.289;exitDx=0;exitDy=0;exitPerimeter=0;entryX=0.278;entryY=0.3;entryDx=0;entryDy=0;entryPerimeter=0;" edge="1" parent="1" source="76EtGpGsDEVgRCwFcyli-13" target="76EtGpGsDEVgRCwFcyli-70">
          <mxGeometry width="50" height="50" relative="1" as="geometry">
            <mxPoint x="179.1300000000001" y="134.44999999999993" as="sourcePoint" />
            <mxPoint x="517.0799999999999" y="130" as="targetPoint" />
          </mxGeometry>
        </mxCell>
        <mxCell id="76EtGpGsDEVgRCwFcyli-73" value="" style="rounded=0;whiteSpace=wrap;html=1;dashed=1;fontSize=15;fillColor=#66FF66;" vertex="1" parent="1">
          <mxGeometry x="467" y="90" width="10" height="130" as="geometry" />
        </mxCell>
        <mxCell id="76EtGpGsDEVgRCwFcyli-74" value="&lt;font style=&quot;font-size: 10px&quot;&gt;Firewall&lt;/font&gt;" style="text;html=1;resizable=0;autosize=1;align=center;verticalAlign=middle;points=[];fillColor=none;strokeColor=none;rounded=0;dashed=1;fontSize=15;rotation=-91;" vertex="1" parent="1">
          <mxGeometry x="414" y="226.5" width="50" height="30" as="geometry" />
        </mxCell>
        <mxCell id="76EtGpGsDEVgRCwFcyli-75" value="&lt;font style=&quot;font-size: 10px&quot;&gt;VIP&lt;/font&gt;" style="text;html=1;resizable=0;autosize=1;align=center;verticalAlign=middle;points=[];fillColor=none;strokeColor=none;rounded=0;dashed=1;fontSize=15;rotation=-92;" vertex="1" parent="1">
          <mxGeometry x="456" y="223.5" width="30" height="30" as="geometry" />
        </mxCell>
        <mxCell id="76EtGpGsDEVgRCwFcyli-76" value="" style="rounded=0;whiteSpace=wrap;html=1;dashed=1;fontSize=15;fillColor=#FF3333;" vertex="1" parent="1">
          <mxGeometry x="458" y="580" width="10" height="130" as="geometry" />
        </mxCell>
        <mxCell id="76EtGpGsDEVgRCwFcyli-77" value="" style="rounded=0;whiteSpace=wrap;html=1;dashed=1;fontSize=15;fillColor=#66FF66;" vertex="1" parent="1">
          <mxGeometry x="488" y="580" width="10" height="50" as="geometry" />
        </mxCell>
        <mxCell id="76EtGpGsDEVgRCwFcyli-78" value="&lt;font style=&quot;font-size: 10px&quot;&gt;VIP&lt;/font&gt;" style="text;html=1;resizable=0;autosize=1;align=center;verticalAlign=middle;points=[];fillColor=none;strokeColor=none;rounded=0;dashed=1;fontSize=15;rotation=-92;" vertex="1" parent="1">
          <mxGeometry x="477" y="713.5" width="30" height="30" as="geometry" />
        </mxCell>
        <mxCell id="76EtGpGsDEVgRCwFcyli-79" value="" style="rounded=0;whiteSpace=wrap;html=1;dashed=1;fontSize=15;fillColor=#66FF66;" vertex="1" parent="1">
          <mxGeometry x="488" y="660" width="10" height="50" as="geometry" />
        </mxCell>
        <mxCell id="76EtGpGsDEVgRCwFcyli-80" value="&lt;font style=&quot;font-size: 10px&quot;&gt;VIP&lt;/font&gt;" style="text;html=1;resizable=0;autosize=1;align=center;verticalAlign=middle;points=[];fillColor=none;strokeColor=none;rounded=0;dashed=1;fontSize=15;rotation=-92;" vertex="1" parent="1">
          <mxGeometry x="477" y="630" width="30" height="30" as="geometry" />
        </mxCell>
        <mxCell id="76EtGpGsDEVgRCwFcyli-81" value="New Proxy Pass Through" style="text;html=1;resizable=0;autosize=1;align=center;verticalAlign=middle;points=[];fillColor=none;strokeColor=none;rounded=0;dashed=1;fontSize=10;" vertex="1" parent="1">
          <mxGeometry x="571" y="685" width="130" height="20" as="geometry" />
        </mxCell>
        <mxCell id="76EtGpGsDEVgRCwFcyli-82" value="&lt;span style=&quot;font-size: 6px&quot;&gt;Device Analytics Traffic - unchanged&lt;br&gt;&lt;/span&gt;" style="edgeLabel;html=1;align=center;verticalAlign=middle;resizable=0;points=[];fontSize=18;" vertex="1" connectable="0" parent="1">
          <mxGeometry x="356.9995021611629" y="684.9966977040436" as="geometry">
            <mxPoint x="31" y="110" as="offset" />
          </mxGeometry>
        </mxCell>
        <mxCell id="76EtGpGsDEVgRCwFcyli-83" value="&lt;font style=&quot;font-size: 32px&quot; color=&quot;#3333ff&quot;&gt;Current State&lt;/font&gt;" style="text;html=1;resizable=0;autosize=1;align=center;verticalAlign=middle;points=[];fillColor=none;strokeColor=none;rounded=0;dashed=1;fontSize=10;" vertex="1" parent="1">
          <mxGeometry x="47" y="315" width="210" height="30" as="geometry" />
        </mxCell>
        <mxCell id="76EtGpGsDEVgRCwFcyli-84" value="&lt;font style=&quot;font-size: 32px&quot; color=&quot;#009900&quot;&gt;Future State&lt;/font&gt;" style="text;html=1;resizable=0;autosize=1;align=center;verticalAlign=middle;points=[];fillColor=none;strokeColor=none;rounded=0;dashed=1;fontSize=10;" vertex="1" parent="1">
          <mxGeometry x="77" y="820" width="190" height="30" as="geometry" />
        </mxCell>
      </root>
    </mxGraphModel>
  </diagram>
</mxfile>
